<?xml version="1.0" standalone="no"?>
<!DOCTYPE svg PUBLIC "-//W3C//DTD SVG 20010904//EN"
 "http://www.w3.org/TR/2001/REC-SVG-20010904/DTD/svg10.dtd">
<svg version="1.0" xmlns="http://www.w3.org/2000/svg"
 width="200.000000pt" height="200.000000pt" viewBox="0 0 200.000000 200.000000"
 preserveAspectRatio="xMidYMid meet">
<metadata>
Created by potrace 1.14, written by Peter Selinger 2001-2017
</metadata>
<g transform="translate(0.000000,200.000000) scale(0.100000,-0.100000)"
fill="#000000" stroke="none">
<path d="M994 1695 l-47 -64 -64 36 c-42 23 -68 32 -74 26 -6 -6 -21 -36 -34
-68 -58 -144 -12 -331 128 -517 32 -43 63 -78 69 -78 20 0 118 73 147 108 76
97 102 174 97 295 -5 119 -32 189 -103 268 -61 68 -65 68 -119 -6z"/>
<path d="M1442 1325 c-125 -35 -235 -121 -349 -274 l-42 -56 35 -36 c71 -73
187 -119 300 -119 152 0 303 91 370 222 27 54 32 48 -68 88 -32 12 -58 24 -58
26 0 2 9 35 19 73 23 82 25 79 -83 86 -45 3 -90 -1 -124 -10z"/>
<path d="M400 1314 c-62 -13 -98 -27 -153 -63 l-38 -24 24 -26 c13 -14 37 -43
52 -64 l28 -38 -52 -53 -53 -53 29 -27 c137 -130 352 -139 611 -25 51 22 53
25 48 54 -9 46 -62 146 -98 186 -102 111 -257 163 -398 133z"/>
<path d="M770 875 c-220 -57 -361 -290 -306 -506 9 -35 20 -67 24 -71 4 -3 36
7 72 23 35 16 69 28 76 25 6 -2 26 -30 44 -60 17 -31 35 -56 38 -56 25 2 88
53 130 107 28 36 66 108 60 115 -1 2 3 12 9 23 27 51 35 255 13 358 l-12 58
-51 -2 c-29 -1 -72 -8 -97 -14z"/>
<path d="M998 852 c-19 -52 -22 -174 -4 -235 55 -189 200 -305 394 -313 l83
-4 -5 33 c-3 17 -8 55 -12 84 l-6 52 38 10 c22 5 52 13 67 17 16 3 31 13 34
20 9 24 -52 138 -99 186 -95 96 -240 153 -431 172 -45 4 -49 2 -59 -22z"/>
</g>
</svg>
